<svg width="50" height="50" viewBox="0 0 50 50" fill="none" xmlns="http://www.w3.org/2000/svg">
<path fill-rule="evenodd" clip-rule="evenodd" d="M45.3885 14.083L43.7545 15.6574C40.214 12.6841 35.6745 11.0211 30.9545 11.0211C27.7766 11.0211 24.6004 11.8083 21.877 13.2072L28.7757 6.56015C29.3204 6.90948 29.9553 7.08496 30.5919 7.08496C31.4991 7.08496 32.4081 6.73563 33.1332 6.03534C34.5851 4.63639 34.5851 2.44858 33.1332 1.04962C32.4064 0.349328 31.4991 0 30.5919 0C29.6847 0 28.7757 0.349328 28.0506 1.04962C26.8711 2.27473 26.6889 4.02301 27.506 5.33504L18.7911 13.732L17.157 12.1576L12.7094 16.443L14.3434 18.0175L5.44638 26.5899C4.9017 26.2406 4.26681 26.0651 3.63021 26.0651C2.72298 26.0651 1.81404 26.4144 1.08894 27.1147C-0.362979 28.5137 -0.362979 30.7015 1.08894 32.1005C1.81574 32.7122 2.72298 33.0632 3.63021 33.0632C4.53745 33.0632 5.44638 32.7138 6.17149 32.0135C7.35106 30.877 7.53319 29.1271 6.71617 27.7281L13.6149 21.081C9.98426 27.8167 10.8013 36.2137 16.1562 42.1604L14.5221 43.8218L19.0617 48.1072L23.5094 43.8218L19.0617 39.5364L17.5179 41.0239C12.2532 35.0755 11.9809 26.5046 16.4285 20.2069L17.1553 20.9072L21.6949 16.6218L20.8779 15.9215C23.7834 13.9092 27.3238 12.8595 30.9545 12.8595C35.2217 12.8595 39.2149 14.347 42.483 16.9711L40.8489 18.4586L45.3885 22.744L49.8362 18.4586L45.3885 14.0846V14.083ZM20.9681 43.8218L19.0617 45.6586L17.1553 43.8218L19.0617 41.985L20.9681 43.8218ZM29.3204 2.36176C29.683 2.01243 30.1375 1.83695 30.5919 1.83695C31.0464 1.83695 31.4992 2.01243 31.8634 2.36176C32.5902 3.06206 32.5902 4.11168 31.8634 4.81034C31.5009 5.15967 31.0464 5.33515 30.5919 5.33515C30.1375 5.33515 29.6847 5.15967 29.3204 4.81034C28.5936 4.1986 28.5936 3.06042 29.3204 2.36176ZM4.89998 30.7885C4.53742 31.1378 4.08296 31.3133 3.62849 31.3133C3.17402 31.3133 2.72125 31.1378 2.357 30.7885C1.99444 30.5261 1.81232 30.0882 1.81232 29.5634C1.81232 29.1255 1.99444 28.6892 2.357 28.3383C2.71955 27.9873 3.17402 27.8135 3.62849 27.8135C4.08296 27.8135 4.53572 27.989 4.89998 28.3383C5.62678 29.0386 5.62678 30.1751 4.89998 30.7869V30.7885ZM17.0651 18.4554L15.1588 16.6185L17.0651 14.7817L18.9715 16.6185L17.0651 18.4554ZM45.3885 20.2921L43.4821 18.4552L45.3885 16.6184L47.2949 18.4552L45.3885 20.2921Z" fill="#333333"/>
</svg>
